<svg width="44" height="20" viewBox="0 0 44 20" fill="none" xmlns="http://www.w3.org/2000/svg">
<rect width="44" height="20" rx="4" fill="white"/>
<path d="M10.78 14V8.132H12.244V9.044C12.444 8.708 12.712 8.452 13.048 8.276C13.392 8.1 13.776 8.012 14.2 8.012C15.584 8.012 16.276 8.816 16.276 10.424V14H14.776V10.496C14.776 10.04 14.688 9.708 14.512 9.5C14.344 9.292 14.08 9.188 13.72 9.188C13.28 9.188 12.928 9.328 12.664 9.608C12.408 9.88 12.28 10.244 12.28 10.7V14H10.78ZM20.6915 14.12C20.0275 14.12 19.4555 13.996 18.9755 13.748C18.4955 13.5 18.1235 13.148 17.8595 12.692C17.6035 12.236 17.4755 11.696 17.4755 11.072C17.4755 10.464 17.5995 9.932 17.8475 9.476C18.1035 9.02 18.4515 8.664 18.8915 8.408C19.3395 8.144 19.8475 8.012 20.4155 8.012C21.2475 8.012 21.9035 8.276 22.3835 8.804C22.8715 9.332 23.1155 10.052 23.1155 10.964V11.408H18.9155C19.0275 12.456 19.6275 12.98 20.7155 12.98C21.0435 12.98 21.3715 12.932 21.6995 12.836C22.0275 12.732 22.3275 12.572 22.5995 12.356L23.0195 13.364C22.7395 13.596 22.3875 13.78 21.9635 13.916C21.5395 14.052 21.1155 14.12 20.6915 14.12ZM20.4755 9.032C20.0355 9.032 19.6795 9.168 19.4075 9.44C19.1355 9.712 18.9715 10.08 18.9155 10.544H21.8675C21.8355 10.056 21.6995 9.684 21.4595 9.428C21.2275 9.164 20.8995 9.032 20.4755 9.032ZM25.8297 14L23.5137 8.132H25.0497L26.5497 12.26L28.0617 8.132H29.1177L30.6297 12.284L32.1297 8.132H33.5817L31.2777 14H29.9697L28.5417 10.22L27.1377 14H25.8297Z" fill="#1A3E3E"/>
</svg>
